HIERARCHY
ROOT Hips
{
	OFFSET -14.64140 90.27770 -84.91600
	CHANNELS 6 Xposition Yposition Zposition Zrotation Xrotation Yrotation
	JOINT Spine
	{
		OFFSET 0.00000 13.20850 -1.60436
		CHANNELS 3 Zrotation Xrotation Yrotation
		JOINT Spine1
		{
			OFFSET 0.00000 8.61716 0.00000
			CHANNELS 3 Zrotation Xrotation Yrotation
			JOINT Spine2
			{
				OFFSET 0.00000 8.61717 0.00000
				CHANNELS 3 Zrotation Xrotation Yrotation
				JOINT Spine3
				{
					OFFSET 0.00000 8.61717 0.00000
					CHANNELS 3 Zrotation Xrotation Yrotation
					JOINT Neck
					{
						OFFSET 0.00000 11.07920 1.10792
						CHANNELS 3 Zrotation Xrotation Yrotation
						JOINT Neck1
						{
							OFFSET 0.00000 7.08032 0.00000
							CHANNELS 3 Zrotation Xrotation Yrotation
							JOINT Head
							{
								OFFSET 0.00000 7.08031 0.00000
								CHANNELS 3 Zrotation Xrotation Yrotation
								End site
								{
									OFFSET 0.00000 0.00000 0.00000
								}
							}
						}
					}
					JOINT RightShoulder
					{
						OFFSET -0.01000 7.91373 5.19711
						CHANNELS 3 Zrotation Xrotation Yrotation
						JOINT RightArm
						{
							OFFSET -18.41580 0.00000 0.00000
							CHANNELS 3 Zrotation Xrotation Yrotation
							JOINT RightForeArm
							{
								OFFSET -29.11090 0.00000 0.00000
								CHANNELS 3 Zrotation Xrotation Yrotation
								JOINT RightHand
								{
									OFFSET -24.65040 0.00000 0.00000
									CHANNELS 3 Zrotation Xrotation Yrotation
									JOINT RightHandThumb1
									{
										OFFSET -5.35114 -0.85590 3.97906
										CHANNELS 3 Zrotation Xrotation Yrotation
										JOINT RightHandThumb2
										{
											OFFSET -4.52789 0.00000 0.00000
											CHANNELS 3 Zrotation Xrotation Yrotation
											JOINT RightHandThumb3
											{
												OFFSET -2.46976 0.00000 0.00000
												CHANNELS 3 Zrotation Xrotation Yrotation
												End site
												{
													OFFSET 0.00000 0.00000 0.00000
												}
											}
										}
									}
									JOINT RightHandIndex1
									{
										OFFSET -14.26970 0.00000 2.88139
										CHANNELS 3 Zrotation Xrotation Yrotation
										JOINT RightHandIndex2
										{
											OFFSET -5.48836 0.00000 0.00000
											CHANNELS 3 Zrotation Xrotation Yrotation
											JOINT RightHandIndex3
											{
												OFFSET -3.01859 0.00000 0.00000
												CHANNELS 3 Zrotation Xrotation Yrotation
												End site
												{
													OFFSET 0.00000 0.00000 0.00000
												}
											}
										}
									}
									JOINT RightHandMiddle1
									{
										OFFSET -14.26970 0.00000 -0.09147
										CHANNELS 3 Zrotation Xrotation Yrotation
										JOINT RightHandMiddle2
										{
											OFFSET -6.17441 0.00000 0.00000
											CHANNELS 3 Zrotation Xrotation Yrotation
											JOINT RightHandMiddle3
											{
												OFFSET -3.56743 0.00000 0.00000
												CHANNELS 3 Zrotation Xrotation Yrotation
												End site
												{
													OFFSET 0.00000 0.00000 0.00000
												}
											}
										}
									}
									JOINT RightHandRing1
									{
										OFFSET -12.69180 0.00000 -3.06433
										CHANNELS 3 Zrotation Xrotation Yrotation
										JOINT RightHandRing2
										{
											OFFSET -5.62556 0.00000 0.00000
											CHANNELS 3 Zrotation Xrotation Yrotation
											JOINT RightHandRing3
											{
												OFFSET -3.56744 0.00000 0.00000
												CHANNELS 3 Zrotation Xrotation Yrotation
												End site
												{
													OFFSET 0.00000 0.00000 0.00000
												}
											}
										}
									}
									JOINT RightHandPinky1
									{
										OFFSET -11.11390 0.00000 -6.03719
										CHANNELS 3 Zrotation Xrotation Yrotation
										JOINT RightHandPinky2
										{
											OFFSET -4.52789 0.00000 0.00000
											CHANNELS 3 Zrotation Xrotation Yrotation
											JOINT RightHandPinky3
											{
												OFFSET -2.46976 0.00000 0.00000
												CHANNELS 3 Zrotation Xrotation Yrotation
												End site
												{
													OFFSET 0.00000 0.00000 0.00000
												}
											}
										}
									}
								}
							}
						}
					}
					JOINT LeftShoulder
					{
						OFFSET 0.01000 7.91373 5.19711
						CHANNELS 3 Zrotation Xrotation Yrotation
						JOINT LeftArm
						{
							OFFSET 18.41580 0.00000 0.00000
							CHANNELS 3 Zrotation Xrotation Yrotation
							JOINT LeftForeArm
							{
								OFFSET 29.11090 0.00000 0.00000
								CHANNELS 3 Zrotation Xrotation Yrotation
								JOINT LeftHand
								{
									OFFSET 24.65040 0.00000 0.00000
									CHANNELS 3 Zrotation Xrotation Yrotation
									JOINT LeftHandThumb1
									{
										OFFSET 5.35114 -0.85590 3.97906
										CHANNELS 3 Zrotation Xrotation Yrotation
										JOINT LeftHandThumb2
										{
											OFFSET 4.52789 0.00000 0.00000
											CHANNELS 3 Zrotation Xrotation Yrotation
											JOINT LeftHandThumb3
											{
												OFFSET 2.46977 0.00000 0.00000
												CHANNELS 3 Zrotation Xrotation Yrotation
												End site
												{
													OFFSET 0.00000 0.00000 0.00000
												}
											}
										}
									}
									JOINT LeftHandIndex1
									{
										OFFSET 14.26970 0.00000 2.88139
										CHANNELS 3 Zrotation Xrotation Yrotation
										JOINT LeftHandIndex2
										{
											OFFSET 5.48836 0.00000 0.00000
											CHANNELS 3 Zrotation Xrotation Yrotation
											JOINT LeftHandIndex3
											{
												OFFSET 3.01859 0.00000 0.00000
												CHANNELS 3 Zrotation Xrotation Yrotation
												End site
												{
													OFFSET 0.00000 0.00000 0.00000
												}
											}
										}
									}
									JOINT LeftHandMiddle1
									{
										OFFSET 14.26970 0.00000 -0.09147
										CHANNELS 3 Zrotation Xrotation Yrotation
										JOINT LeftHandMiddle2
										{
											OFFSET 6.17440 0.00000 0.00000
											CHANNELS 3 Zrotation Xrotation Yrotation
											JOINT LeftHandMiddle3
											{
												OFFSET 3.56744 0.00000 0.00000
												CHANNELS 3 Zrotation Xrotation Yrotation
												End site
												{
													OFFSET 0.00000 0.00000 0.00000
												}
											}
										}
									}
									JOINT LeftHandRing1
									{
										OFFSET 12.69180 0.00000 -3.06433
										CHANNELS 3 Zrotation Xrotation Yrotation
										JOINT LeftHandRing2
										{
											OFFSET 5.62556 0.00000 0.00000
											CHANNELS 3 Zrotation Xrotation Yrotation
											JOINT LeftHandRing3
											{
												OFFSET 3.56744 0.00000 0.00000
												CHANNELS 3 Zrotation Xrotation Yrotation
												End site
												{
													OFFSET 0.00000 0.00000 0.00000
												}
											}
										}
									}
									JOINT LeftHandPinky1
									{
										OFFSET 11.11390 0.00000 -6.03719
										CHANNELS 3 Zrotation Xrotation Yrotation
										JOINT LeftHandPinky2
										{
											OFFSET 4.52789 0.00000 0.00000
											CHANNELS 3 Zrotation Xrotation Yrotation
											JOINT LeftHandPinky3
											{
												OFFSET 2.46976 0.00000 0.00000
												CHANNELS 3 Zrotation Xrotation Yrotation
												End site
												{
													OFFSET 0.00000 0.00000 0.00000
												}
											}
										}
									}
								}
							}
						}
					}
					JOINT pCube4
					{
						OFFSET 0.00000 10.91090 1.10792
						CHANNELS 3 Zrotation Xrotation Yrotation
						End site
						{
							OFFSET 0.00000 0.00000 0.00000
						}
					}
				}
			}
		}
	}
	JOINT RightUpLeg
	{
		OFFSET -9.98441 0.00000 0.00000
		CHANNELS 3 Zrotation Xrotation Yrotation
		JOINT RightLeg
		{
			OFFSET 0.00000 -42.11790 0.00000
			CHANNELS 3 Zrotation Xrotation Yrotation
			JOINT RightFoot
			{
				OFFSET 0.00000 -45.00020 -0.00001
				CHANNELS 3 Zrotation Xrotation Yrotation
				JOINT RightForeFoot
				{
					OFFSET 0.00000 -3.74820 0.00000
					CHANNELS 3 Zrotation Xrotation Yrotation
					JOINT RightToeBase
					{
						OFFSET 0.00000 0.06325 14.43120
						CHANNELS 3 Zrotation Xrotation Yrotation
						End site
						{
							OFFSET 0.00000 0.00000 0.00000
						}
					}
				}
			}
		}
	}
	JOINT LeftUpLeg
	{
		OFFSET 9.98441 0.00000 0.00000
		CHANNELS 3 Zrotation Xrotation Yrotation
		JOINT LeftLeg
		{
			OFFSET 0.00000 -42.11800 0.00000
			CHANNELS 3 Zrotation Xrotation Yrotation
			JOINT LeftFoot
			{
				OFFSET 0.00000 -45.00070 0.00000
				CHANNELS 3 Zrotation Xrotation Yrotation
				JOINT LeftForeFoot
				{
					OFFSET 0.00000 -3.74824 0.00000
					CHANNELS 3 Zrotation Xrotation Yrotation
					JOINT LeftToeBase
					{
						OFFSET 0.00000 0.06325 14.43110
						CHANNELS 3 Zrotation Xrotation Yrotation
						End site
						{
							OFFSET 0.00000 0.00000 0.00000
						}
					}
				}
			}
		}
	}
}
MOTION
Frames: 4
Frame Time: 0.050000
0.013266443059126215 -0.02952235151328091 0.026584205900341454 0.029067046939364405 0.028225697646723925 0.015536390192771105 -3.3230518681988257 1.529946313434103 -0.7857498768943902 -1.0161947493944348 3.591629332439589 0.3471035933763052 -1.3073584865776624 -2.445403961872202 -2.036527560625308 -1.2616527336293084 -0.09277592991280885 -0.8979116324145865 -0.9017970520531507 15.742507162504612 2.033182811292616 0.22299941950447325 1.1877509308157028 4.391989909872523 -0.46623144091942664 -13.649303055836413 0.33986125392697114 -11.700217312775708 3.9517661853316035 -11.290458711342987 66.29721674001622 -11.255297268264355 46.265463337953705 24.36121373483605 -2.7984747582849705 97.62628342544197 10.359759596843118 -0.3348140548473288 -0.30669123535526716 4.498575253466192 -0.1006372589943016 -1.5904218751148436 -0.01434589836844052 0.041438184454206134 -56.254283095523654 -0.04904004427046651 -0.02332481220670574 -56.21880209553046 -38.805621997899074 -0.01647616629926317 -0.04631554087663914 0.028465263541195794 -0.024587710766645402 0.025062224634055184 -0.01819772627554161 0.013245182795383262 -0.04173512384592653 -36.657032378693124 -0.0011225120779207386 0.018001347664339695 -0.010470806657481188 0.018428617056488267 -0.010668008511718593 -0.031134122525424576 0.004735713938654111 0.021865138581307314 -19.75461560898343 0.017026780331966383 -0.04397047091408668 0.0027380749366627583 0.04124260085440318 -0.014595654634272159 -0.005150395597719422 0.04522863114623657 0.024579071780929832 24.074427698414347 0.0399232653905575 -0.014119172037648078 28.82843149167128 0.029281671210387133 -0.0023458521108639836 28.894324281647826 0.005868173382116536 0.03569918989897949 14.776301870303959 3.3829954864049445 9.757742986163219 -62.769532134480016 5.242686307754517 -51.209056038911264 -53.54746334925008 0.8638612281514384 -94.47312516922288 -5.8930180854461085 0.4958373974496463 -0.9681483709071363 -0.4958161904399811 0.0826734460088952 -8.092220264329244 -0.02112073007691338 -0.010816009971483088 44.566768777590546 -0.024531446637431648 0.032787097014461336 44.550244170024804 12.445014089445717 0.04806299270503904 0.04884618339720721 -0.01755701739354797 -0.009373652418435578 0.018316302936406063 0.04928176079431187 -0.04815886050692279 -0.012907699645972975 11.147059648388463 0.03860413882625137 0.00525828201860016 -0.04291203689661298 0.01609855202814035 0.00742552127732633 -0.010075392474517173 -0.019813768895459466 0.022546398562626233 4.7644123408966585 -0.03588506364701706 -0.0406371814516905 0.01614807393174159 0.02198396058320571 -0.0006420859461918812 0.043216839610702114 -0.012028187893699494 -0.021880601479260034 -5.618600877545484 0.024303070431523674 -0.0067018684995197786 -6.683525280627465 0.013054026570416589 -0.013491172857038932 -6.707496109372938 0.045323560988279124 -0.007212950965324983 0.02548396061116355 -0.026563342699817034 0.043596930107627996 8.052435136245718 3.4502525976585874 -19.21109933177066 0.02507444943449784 10.407315458082763 0.04347232024239395 -5.576437633066005 -15.643133744537062 3.2329401537373985 -0.021977588082771154 -0.03842684036325883 -0.017668612223471138 -0.04759158764328083 4.6774356438584315 -0.008042146072175191 12.421663752818873 -8.201548799362987 6.89961793591653 -0.009357112446950842 46.371414071896545 0.0231220643264924 -4.308013096795671 -14.79246398887976 -3.7887097594493513 0.011277078530411714 0.013891486613625893 0.0010480600347936055 -0.036609569622227826 -10.777503790310918 -0.04129219558785049 
0.030984007790343757 -0.015469594047173924 -0.01929681837528288 0.00025705700686651814 0.026006062937270348 0.01127046932358717 -3.3731767156710344 1.453577340455845 -0.7139546006891324 -1.019225297864805 3.5183096814483075 0.3699746825555994 -1.2377111115304702 -2.391929681553518 -2.1321387919553443 -1.298757664521207 -0.035861602101572375 -0.9166310383866989 -0.8669984194955282 15.736416894998635 2.303086512327838 0.28887599578262124 1.288041501420839 5.114781619999528 -0.5676012433136014 -13.366111567087186 0.3911915015051205 -11.662244406514732 3.9987805995694026 -11.415095061537258 65.70268982545916 -10.75011677097605 45.082037627699464 20.942927227301226 -3.264854117684493 97.89331770581921 10.16613150591653 -0.36236135237085493 -0.4989509130988953 4.514658979040022 -0.16207619722208652 -1.5800150292775073 0.004487107024241649 0.021616174078142977 -56.266364523983086 0.0223995869693424 -0.011172988672113656 -56.21598982337471 -38.748170390528415 -0.01751422675445965 0.04926953525810596 0.02054170477039584 0.04312959570565732 -0.038940424350134305 -0.010161573571067938 0.039295121448625805 0.004688421728922108 -36.73794786698929 0.01846940888555036 0.024496642802000406 0.030360889311759374 0.007001257176468998 -0.04018615920851812 -0.04553263282521903 0.010794182616343385 -0.00118897021043818 -19.785952928770072 -0.005851229009769158 -0.017451870242045746 0.002943412787619724 -0.008976594098933198 0.01862188735157195 0.021143763572333493 -0.030137550423718778 -0.025458286863249698 24.078560590921104 0.028239609008680385 0.0023332241449544474 28.86896572003419 -0.03634488330201762 0.005181830288281393 28.81843747094566 0.013406971983866253 0.005622595292849206 14.724390151713813 3.345913755384712 9.844049433510348 -62.605947528066174 5.757304050582611 -50.65929695512655 -54.22096245575826 1.367446631376328 -93.50964454369957 -6.1372769766525614 0.06362294072315858 -0.4466601200367128 -0.44164805762918874 0.0635105036363408 -8.15580685736181 0.020226802719698976 0.024968747833704626 44.57964285180207 0.003947018906356474 0.035560794711457636 44.603422848212126 12.41519047291026 0.004665866718439332 -0.03621083565588979 0.036807339970404904 -0.00924760468808135 0.009450008455390202 -0.017135039633207 0.025539182982706028 0.029110433864023347 11.10960704706727 -0.015301321649779794 0.014093355829975408 0.04026906497033468 0.033452436280553076 -0.006842568957564334 0.03508485826653807 -0.018426510181403646 0.003857968524765821 4.7292565416179055 -0.0026089282802381065 -0.004293372423138883 0.03990763910126723 -0.02013770507920195 -0.046899901756057835 0.011125034471299075 0.024228652091238756 0.04783712271807125 -5.579728092604786 0.02056121945263336 -0.017465668618683004 -6.697414156276332 -0.0086696668044484 0.030058288711943503 -6.6890519090174125 -0.00163968360658969 0.012933903739890602 -0.02898731589545523 0.04185435634657856 0.020670766508969606 8.010954914522046 3.5080514878395617 -19.240308848429095 0.025126328790257176 10.361940867340536 -0.015610291594714287 -5.669003607240819 -15.638754164580222 3.1615403113503797 0.04428383546445044 0.046359839930855705 -0.0390413004588238 -0.0038257202643421644 4.741101209559763 -0.0035018006244696915 12.427559594478298 -8.234494885547518 6.860149947866478 -0.0323868164933256 46.41257828145921 0.009449810919112208 -4.367908688097196 -14.797881435802475 -3.843786722448729 0.035031895738733554 -0.026222438578746662 0.0017726204470688554 0.044789985791945465 -10.749569711980222 0.03421010471552355 
-0.006351391818395858 0.039403785689519716 0.00013813196116208116 -0.005183114916448115 0.0011848100899298913 0.02132390235301786 -3.4730754005622337 1.3092628424943247 -0.7041330523152542 -1.0778933439986 3.526188407431554 0.3695602427744384 -1.2547017828800475 -2.410050472516258 -2.1453009618069374 -1.2963011234762492 -0.03189965875928222 -0.9243334447838678 -0.9499938550703307 15.64941205238135 2.5684519991663737 0.29308389047358063 1.3793424458426709 5.808918190871037 -0.668648373601426 -13.169410324487414 0.4615202524392499 -11.486207862297565 3.9205363385793244 -11.484094336657293 65.07321832483008 -9.69715230948239 43.212957153684684 17.434477845013824 -3.6644540733932813 98.17417091502296 9.947930666547125 -0.39973215364347 -0.7348221530262146 4.519296176088397 -0.10383476540107213 -1.6203610104179016 -0.027936956074177902 -0.02870731496125802 -56.282655552664636 -0.033875409792004776 -0.017262190958999193 -56.24813726966281 -38.78422898740308 -0.003236404264893432 0.0101055158787412 -0.04629523824037401 -0.02084533789157735 -0.012447476967130135 -0.011946575698676071 -0.027968272084899545 0.032631374325433754 -36.66609166157314 0.027858474145952074 0.020456078569379813 -0.014411465537263293 0.016465881876174832 0.02338822933526648 0.04537894654076981 -0.007647579221590205 0.04040424380025785 -19.72614587226964 0.0004430526787410809 -0.028737853825422058 -0.01632692888237681 -0.04815928960354164 0.022564911468591242 0.038344001185966585 -0.04548826127629011 0.02460301113169168 24.031188907717542 -0.03494135223702229 0.02750798152906804 28.85474004751507 -0.00920639446743013 0.014180588417863264 28.843330798466596 0.0024007634189459255 -0.016217445354993656 14.59913111691046 3.320980544226865 9.923096862959955 -62.53660603699917 6.436798421371231 -49.73601319591334 -56.15293447087059 2.4067072598981545 -92.43097741321306 -5.958176693056066 -0.3211019293965474 0.020100185319157034 -0.5000873443945254 0.09882221230725072 -8.148466560300372 -0.003397054052794472 0.008789610457425415 44.543454668052625 0.02611547323156863 -0.00863660942731498 44.589020994385834 12.45882952379628 0.00038743684513941153 -0.012293403744025771 -0.015525360229160283 -0.03830714045912945 0.03468577591450085 -0.0253877565649234 -0.02797685565645288 0.009560322367565221 11.092289782526871 -0.03564150536696798 -0.01537760103701846 0.04536649804828961 0.0071328877052312025 0.04351222264489545 -0.03351511512511644 0.017913437758536148 0.020870042731700435 4.821274821957277 -0.02082714667980464 -0.043543165136745124 -0.02305486247258077 -0.017756781711436017 0.02334281239581071 0.008523160577718087 -0.015240362147769729 -0.03231493636470615 -5.6205517407742835 -0.016268974608139388 -0.03272497173854729 -6.6792189382080815 0.02091762251958802 0.009308307917486982 -6.762314816293709 -0.01963817207087817 0.026360991588736296 0.0499255573482712 0.010137837077789043 0.039950249359826454 8.01944768545448 3.455318184174685 -19.20502358440699 0.002193513673995117 10.412926541843776 -0.010752083981549077 -5.631697241836512 -15.657452896346454 3.18383795001483 0.03688689031689513 0.013327306711094604 -0.003793095623966386 0.01888669821021776 4.681922777093248 0.043967747677304006 12.49210888193991 -8.191555445656588 6.845872002054839 0.020019974606452117 46.34040944473112 0.050038639885511556 -4.342402144223234 -14.748584566289876 -3.835230364090665 0.04692494591454109 0.03662441120791651 -0.015170601962276308 -0.009850325434113467 -10.725635109049632 -0.01269511757831108 
-0.0456801589602782 0.015451534214235186 0.009403298529252433 -0.03688788195072233 -0.03240256810996025 0.035402592209114285 -3.5050963913756226 1.2108176885173634 -0.736867866233725 -1.0664941913320343 3.564222857586418 0.40746262693870033 -1.29690104934983 -2.3697705137675666 -2.2575322245615035 -1.2949057311900676 -0.00025468371955276667 -0.9248129326920892 -1.005247406503157 15.71248569602724 2.776762618571179 0.30999930859756364 1.4820632218798804 6.373081438892105 -0.7445021089180885 -12.979453758369107 0.5237485257457356 -11.325670881941164 3.9107984529239896 -11.706306987520257 64.0912610062671 -9.137231636054596 41.41125500252248 14.375606634331797 -3.9908608569810493 98.64200863522083 9.655941744795077 -0.4343857397886648 -0.7884519512322142 4.523550069892715 -0.09651850487822067 -1.6246486363925792 -0.04485322481021088 -0.04892798858480146 -56.24751713364319 -0.0341200774443908 -0.0054498633757613536 -56.22774574032923 -38.76090933574815 -0.03238120875817555 0.0491485040221668 -0.03646743802789415 -0.02780504423829962 0.034007442211301364 0.015597645187850085 0.008767505315606305 -0.031451245612277114 -36.65594691027958 -0.04480812686943822 -0.0048770289147709095 -0.040628012402843715 -0.04389708414002394 0.005628640615754569 -0.008436642074933361 0.027271815047800792 0.02881223923078649 -19.761449101344184 -0.029116455586008724 -0.013159489154277889 0.016514567108072194 -0.04583757757603019 -0.019199432277569775 0.005142479940901224 -0.028775110509886848 -0.004116860611082998 24.08267722166745 -0.033098254645660595 -0.03184836686025906 28.868456635166822 -0.02340573572377695 -0.01545468383311194 28.823331877409302 -0.037461880201005444 -0.004006794999786125 14.516098991330484 3.2536325806673347 10.001956775198511 -62.41294779396316 7.045562705561031 -48.42401129923479 -58.563961352551146 3.687085060446437 -91.79622012027986 -5.598818442458687 -0.6324519919358496 0.41767821583281756 -0.4690694823827455 0.08507863559011514 -8.15025833036513 -0.02295148247783635 -0.006115903053132302 44.58322041040169 -0.003296746983787679 0.014100241101200377 44.57610964921312 12.454923277377329 -0.022660223528448098 -0.025571614662696182 -0.04421928429363012 0.03281058091402088 -0.024286323315148888 0.03880297277597735 0.022491068777433405 -0.028726559368503594 11.130172404896847 -0.0240244836652732 -0.021184946049187525 -0.04358016682497471 0.017031882576443644 -0.04299737996046334 0.017401005345940513 -0.04256725014879942 -0.004490061451535269 4.7488725186181835 -0.007411510368513606 -0.019627942683352242 -0.04875640697363933 -0.045598052122956784 -0.025884591453236527 -0.04715971259796669 -0.008852625195847954 -0.0017464820944162733 -5.592328589536136 -0.014705604654943829 -0.04811427929073151 -6.688429007423535 0.002898070278559542 0.04179848389298971 -6.716000891022179 -0.03148779613839954 0.015216092272416642 -0.024078540788462527 -0.036211617889980646 -0.041507656730913556 8.071315220561843 3.4533337204423957 -19.193974391867577 0.0074843976294799094 10.431151075994215 -0.029848799014836124 -5.598956444824898 -15.67529150035265 3.168269557389685 -0.024326290153584815 0.038422145885069404 -0.046335255767294144 0.00023707491087405957 4.6736976819517535 0.027827930601391337 12.455910709785966 -8.210747450416422 6.847522859613023 -0.0289191254857633 46.425812592283286 -0.015599455400161149 -4.371506978788292 -14.796130225277924 -3.786338537215661 -0.03846748696072278 -0.0064857640096438254 -0.007168563550282856 -0.015076353962757682 -10.726783523602384 0.027781622558206227 
